<svg xmlns="http://www.w3.org/2000/svg" xmlns:xlink="http://www.w3.org/1999/xlink" version="1.1" id="Capa_1" x="0px" y="0px" viewBox="0 0 58 58" style="enable-background:new 0 0 58 58;" xml:space="preserve" width="512" height="512" class=""><g transform="matrix(1 0 0 1 0 0)"><circle style="fill:#BD071D" cx="29" cy="29" r="29" data-original="#4B6DAA" class="" data-old_color="#4B6DAA"></circle><path style="fill:#FFFFFF" d="M32.999,44c-0.205,0-0.412-0.063-0.59-0.193l-15-11c-0.445-0.327-0.542-0.953-0.215-1.398  c0.327-0.443,0.952-0.542,1.398-0.215l15,11c0.445,0.327,0.542,0.953,0.215,1.398C33.61,43.858,33.307,44,32.999,44z" data-original="#424A60" class="" data-old_color="#ffffff"></path><path style="fill:#FFFFFF" d="M18.001,25c-0.308,0-0.611-0.142-0.808-0.408c-0.326-0.445-0.23-1.071,0.215-1.398l15-11  c0.446-0.327,1.071-0.229,1.398,0.215c0.326,0.445,0.23,1.071-0.215,1.398l-15,11C18.413,24.938,18.206,25,18.001,25z" data-original="#424A60" class="" data-old_color="#ffffff"></path><circle style="fill:#FFFFFF" cx="15" cy="28" r="5" data-original="#A4E869" class="active-path" data-old_color="#424A60"></circle><circle style="fill:#FFFFFF" cx="38" cy="13" r="5" data-original="#FFFFFF" class="" data-old_color="#ffffff"></circle><circle style="fill:#FFFFFF" cx="38" cy="43" r="5" data-original="#FFFFFF" class="" data-old_color="#ffffff"></circle></g> </svg>